# xmcd
#
# Track frame offsets:
# 150
# 26031
# 50753
# 75081
# 94639
# 123126
# 155407
# 181565
# 197861
# 212893
#
# Disc length: 3239 seconds
#
# Revision: 0
# Processed by: cddbd v1.5.2PL0 Copyright (c) Steve Scherf et al.
# Submitted via: Audion 3.0.2 (http://www.panic.com/audion/)
#
DISCID=760ca50a
DTITLE=Mimi Secue - Naila
DYEAR=1900
DGENRE=
TTITLE0=Naila
TTITLE1=Something Sometimes
TTITLE2=Far Away
TTITLE3=Farewell
TTITLE4=Pilot
TTITLE5=Not Your Fault
TTITLE6=Winter
TTITLE7=Grey
TTITLE8=Rats
TTITLE9=Taste
EXTD=
EXTT0=
EXTT1=
EXTT2=
EXTT3=
EXTT4=
EXTT5=
EXTT6=
EXTT7=
EXTT8=
EXTT9=
PLAYORDER=
